<svg version="1" xmlns="http://www.w3.org/2000/svg" width="1365.333" height="1365.333" viewBox="0 0 1024.000000 1024.000000"><path d="M301 205.4c-93.8 12-169 76.3-192 163.9-5.4 20.3-6.5 30-6.4 54.7 0 23.9 1 32.7 5.9 52.1 7.4 28.9 22.4 58.9 41.3 82.4 3.2 3.8 8.2 10.4 11.3 14.5 5.1 6.8 95.1 97.1 200.4 201.1 34.5 34 37.5 36.7 44 39.7 15.5 7 34 5.7 47-3.1 2.2-1.5 15.8-14.2 30.3-28.3l26.3-25.7 2.7 2.4c1.5 1.3 13.5 13 26.7 26s25.9 24.8 28.2 26.3c14.6 9 35.6 9.1 50.3.3 4.3-2.5 21.1-19 141.1-138.3 60.3-60 95.8-95.9 99.6-101 3.2-4.4 8.4-11.1 11.5-15 57.3-71.8 62.5-172.5 13-249.9-16-24.9-41.2-50.1-66.7-66.7-26.5-17.2-58.6-29.3-91.5-34.5-16.1-2.5-51.9-2.5-68 0-41.7 6.6-79 23-111 48.8-9.4 7.6-25.1 23.2-32.3 31.9l-3.6 4.5-3.3-4c-6-7.5-22.3-23.8-31.3-31.3-12.4-10.4-27.4-20.1-44-28.3-22-10.8-39.5-16.5-65.2-21-15.2-2.7-48.9-3.5-64.3-1.5zm79.1 147.5c5.6 2.6 11.3 8.1 14.2 13.6 2.2 4 2.2 4.5 2.8 86 .6 88.8.3 85.1 6.2 99.3 7.8 18.8 30.5 41.8 44.8 45.2 9 2.2 18.2-.4 24.8-7.1 7.1-7 6.5.2 7.1-98.4l.5-89 2.6-5.5c3.4-7.1 8-11.7 14.9-14.9 14.9-6.9 33.3.1 40.2 15.3l2.3 5.1v86c.1 69.3.3 86.9 1.4 90.8 1.6 5.6 7.8 13 13.2 15.8 9.2 4.6 18.3 3.4 29.3-3.9 14.5-9.6 28-26 33.9-41.1 5.5-14.3 5.6-15.7 5.7-100.1v-77.5l2.4-5c2.9-6.1 8.4-11.7 14.5-14.7 7-3.5 18.6-3.3 26.3.5 6.4 3.2 11.1 8 14.2 14.6 2.1 4.6 2.1 5.3 2.1 87.1 0 75.7-.1 83.2-1.8 91.5-5.4 26.7-17.6 49.9-36.6 69.8-28 29.1-63.4 46.8-106.6 53.2-14.5 2.1-41.5 2.1-56 0-40-5.9-74.6-22.2-100.9-47.5-22.2-21.4-35.3-44.3-41.8-72.8-2.1-9.5-2.2-11.5-2.6-90.2-.2-57 0-82 .8-85.6 3.1-14.4 16-24 31-23.1 3.9.3 8.4 1.3 11.1 2.6z"/></svg>