<?xml version="1.0" standalone="no"?>
<!DOCTYPE svg PUBLIC "-//W3C//DTD SVG 20010904//EN"
 "http://www.w3.org/TR/2001/REC-SVG-20010904/DTD/svg10.dtd">
<svg version="1.0" xmlns="http://www.w3.org/2000/svg"
 width="512.000000pt" height="512.000000pt" viewBox="0 0 512.000000 512.000000"
 preserveAspectRatio="xMidYMid meet">
<metadata>
Created by potrace 1.11, written by Peter Selinger 2001-2013
</metadata>
<g transform="translate(0.000000,512.000000) scale(0.100000,-0.100000)"
fill="#000000" stroke="none">
<path d="M0 2560 l0 -2560 2560 0 2560 0 0 2560 0 2560 -2560 0 -2560 0 0
-2560z m1995 1221 c192 -50 314 -120 458 -264 l109 -108 20 28 c40 53 153 159
213 200 323 218 712 229 1061 28 92 -53 265 -226 320 -320 98 -169 139 -319
138 -510 0 -205 -46 -356 -158 -531 -49 -76 -131 -163 -568 -598 l-511 -508
-258 258 -259 259 -260 -260 -260 -260 -501 500 c-275 275 -523 529 -551 565
-139 181 -215 452 -188 673 28 238 119 429 279 588 148 147 316 235 524 275
99 19 289 11 392 -15z"/>
<path d="M1675 3529 c-151 -22 -270 -78 -377 -178 -92 -85 -157 -185 -194
-297 -26 -80 -29 -102 -29 -219 1 -113 4 -140 27 -208 53 -159 77 -187 517
-629 223 -225 410 -408 416 -408 12 0 281 267 275 273 -3 2 -39 19 -80 39
-188 88 -323 243 -397 453 l-28 80 -5 550 -5 550 -30 2 c-16 0 -57 -3 -90 -8z"/>
<path d="M3317 3534 c-4 -4 -7 -244 -7 -534 0 -592 -1 -604 -75 -752 -83 -166
-234 -307 -395 -368 -19 -7 -37 -15 -40 -17 -6 -6 263 -273 275 -273 6 0 198
188 426 418 390 392 418 422 457 497 59 116 82 208 82 331 0 374 -267 662
-650 699 -36 3 -69 3 -73 -1z"/>
<path d="M2080 2992 c0 -504 2 -527 54 -631 49 -95 176 -206 259 -226 l27 -7
0 522 0 522 -82 85 c-82 84 -176 161 -230 189 l-28 15 0 -469z"/>
<path d="M2970 3424 c-30 -19 -103 -83 -162 -142 l-108 -107 0 -523 0 -523 23
7 c124 38 255 181 291 316 15 55 17 121 14 536 l-3 472 -55 -36z"/>
</g>
</svg>
