<?xml version="1.0" encoding="UTF-8"?>
<svg width="20px" height="20px" viewBox="0 0 20 20" version="1.1" xmlns="http://www.w3.org/2000/svg" xmlns:xlink="http://www.w3.org/1999/xlink">
    <!-- Generator: Sketch 48.1 (47250) - http://www.bohemiancoding.com/sketch -->
    <title>Shape</title>
    <desc>Created with Sketch.</desc>
    <defs></defs>
    <g id="Desktop-HD" stroke="none" stroke-width="1" fill="none" fill-rule="evenodd" transform="translate(-311.000000, -3561.000000)" opacity="0.5">
        <g id="Footer" transform="translate(250.000000, 3321.000000)" fill="#000000">
            <g id="social-icons" transform="translate(0.000000, 238.000000)">
                <path d="M77.1347601,2 L64.8652399,2 C62.7344779,2 61,3.73330198 61,5.86523989 L61,18.1347601 C61,20.266698 62.7344779,22 64.8652399,22 L77.1347601,22 C79.2655221,22 81,20.266698 81,18.1347601 L81,5.86523989 C81,3.73330198 79.2655221,2 77.1347601,2 L77.1347601,2 Z M78.24365,4.30597366 L78.6857949,4.30362183 L78.6857949,7.69379116 L75.3062088,7.70437441 L75.2944497,4.31420508 L78.24365,4.30597366 L78.24365,4.30597366 Z M68.1460489,9.94684854 C68.7857479,9.06020696 69.8252587,8.47930386 71,8.47930386 C72.1747413,8.47930386 73.2142521,9.06020696 73.8539511,9.94684854 C74.2714017,10.5253998 74.5206961,11.233302 74.5206961,12 C74.5206961,13.9402634 72.9414393,15.5195202 71,15.5195202 C69.0597366,15.5195202 67.4804798,13.9402634 67.4804798,12 C67.4804798,11.233302 67.7297742,10.5253998 68.1460489,9.94684854 L68.1460489,9.94684854 Z M79.0515052,18.1347601 C79.0515052,19.1919097 78.1919097,20.0515052 77.1347601,20.0515052 L64.8652399,20.0515052 C63.8080903,20.0515052 62.9484948,19.1919097 62.9484948,18.1347601 L62.9484948,9.94684854 L65.9353246,9.94684854 C65.6766228,10.5818438 65.5319849,11.2744591 65.5319849,12 C65.5319849,15.0150517 67.9849483,17.469191 71,17.469191 C74.0162277,17.469191 76.469191,15.0150517 76.469191,12 C76.469191,11.2744591 76.3222013,10.5818438 76.0658514,9.94684854 L79.0515052,9.94684854 L79.0515052,18.1347601 L79.0515052,18.1347601 Z" id="Shape"></path>
            </g>
        </g>
    </g>
</svg>