<?xml version="1.0" encoding="UTF-8"?>
<svg width="20px" height="20px" viewBox="0 0 20 20" version="1.1" xmlns="http://www.w3.org/2000/svg" xmlns:xlink="http://www.w3.org/1999/xlink">
    <!-- Generator: Sketch 48.1 (47250) - http://www.bohemiancoding.com/sketch -->
    <title>Shape</title>
    <desc>Created with Sketch.</desc>
    <defs></defs>
    <g id="Desktop-HD" stroke="none" stroke-width="1" fill="none" fill-rule="evenodd" transform="translate(-441.000000, -3561.000000)" opacity="0.5">
        <g id="Footer" transform="translate(250.000000, 3321.000000)" fill="#000000">
            <g id="social-icons" transform="translate(0.000000, 238.000000)">
                <path d="M191.504468,8.41311307 L195.402634,8.41311307 L195.402634,21.9987194 L191.504468,21.9987194 L191.504468,8.41311307 Z M193.354186,6.71379178 L193.325964,6.71379178 C191.914864,6.71379178 191,5.67524651 191,4.36009732 C191,3.01805609 191.94191,2 193.381232,2 C194.819379,2 195.703669,3.01549494 195.731891,4.3562556 C195.731891,5.67140479 194.819379,6.71379178 193.354186,6.71379178 L193.354186,6.71379178 Z M211,22 L206.579727,22 L206.579727,14.9683698 C206.579727,13.1281854 205.888288,11.8732232 204.367827,11.8732232 C203.204845,11.8732232 202.55809,12.7196824 202.257056,13.537969 C202.144167,13.8299398 202.161806,14.2384428 202.161806,14.6482264 L202.161806,22 L197.78269,22 C197.78269,22 197.839135,9.54514022 197.78269,8.41311307 L202.161806,8.41311307 L202.161806,10.5452683 C202.420508,9.61301063 203.819849,8.28249456 206.052916,8.28249456 C208.823377,8.28249456 211,10.2379306 211,14.4446152 L211,22 L211,22 Z" id="Shape"></path>
            </g>
        </g>
    </g>
</svg>