<?xml version="1.0" encoding="UTF-8"?>
<svg width="21px" height="18px" viewBox="0 0 21 18" version="1.1" xmlns="http://www.w3.org/2000/svg" xmlns:xlink="http://www.w3.org/1999/xlink">
    <!-- Generator: Sketch 48.1 (47250) - http://www.bohemiancoding.com/sketch -->
    <title>Shape</title>
    <desc>Created with Sketch.</desc>
    <defs></defs>
    <g id="Desktop-HD" stroke="none" stroke-width="1" fill="none" fill-rule="evenodd" transform="translate(-375.000000, -3562.000000)" opacity="0.5">
        <g id="Footer" transform="translate(250.000000, 3321.000000)" fill="#000000">
            <g id="social-icons" transform="translate(0.000000, 238.000000)">
                <path d="M143.526149,5.84573162 C144.416094,5.28412538 145.098961,4.39361548 145.41944,3.3328037 C144.586195,3.85410949 143.665434,4.23111368 142.683043,4.43521595 C141.899102,3.55120612 140.778658,3 139.538651,3 C137.159711,3 135.231907,5.03452261 135.231907,7.54355048 C135.231907,7.89975444 135.267653,8.2468583 135.341609,8.57836198 C131.762106,8.38855987 128.588132,6.58153979 126.461877,3.83070923 C126.090861,4.50411671 125.878852,5.28412538 125.878852,6.11613462 C125.878852,7.69175213 126.639373,9.08276759 127.795563,9.89917666 C127.089276,9.8757764 126.424899,9.6690741 125.843106,9.33107035 L125.843106,9.38697097 C125.843106,11.5891954 127.32717,13.4261158 129.300581,13.8421205 C128.938193,13.9487217 128.558549,14.0020222 128.164113,14.0020222 C127.886776,14.0020222 127.615601,13.9747219 127.354288,13.9214213 C127.901567,15.7258414 129.492868,17.041456 131.378764,17.0765564 C129.903328,18.29597 128.045783,19.021378 126.027998,19.021378 C125.680401,19.021378 125.336503,19.0018778 125,18.9589773 C126.90685,20.2472916 129.171157,21 131.604332,21 C139.530023,21 143.861419,14.0761231 143.861419,8.07135635 C143.861419,7.87375415 143.858954,7.67745197 143.850326,7.48374982 C144.692199,6.8428427 145.42437,6.0420338 146,5.13072367 C145.227153,5.49212769 144.396373,5.73653041 143.526149,5.84573162 Z" id="Shape"></path>
            </g>
        </g>
    </g>
</svg>