<?xml version="1.0" encoding="UTF-8"?>
<svg width="40px" height="29px" viewBox="0 0 40 29" version="1.1" xmlns="http://www.w3.org/2000/svg" xmlns:xlink="http://www.w3.org/1999/xlink">
    <!-- Generator: Sketch 48.1 (47250) - http://www.bohemiancoding.com/sketch -->
    <title>Fill 1</title>
    <desc>Created with Sketch.</desc>
    <defs></defs>
    <g id="Desktop-HD" stroke="none" stroke-width="1" fill="none" fill-rule="evenodd" transform="translate(-1313.000000, -3523.000000)">
        <g id="Footer" transform="translate(250.000000, 3321.000000)" fill="#FFFFFF">
            <g id="form" transform="translate(760.000000, 186.000000)">
                <g id="submit" transform="translate(285.000000, 0.000000)">
                    <path d="M30,41 C30.4295645,39.6243182 30.8351856,38.3251136 31.2489165,37 C31.8547093,37.3969318 32.437846,37.7790909 33,38.1472727 C32.0158764,39.0831818 31.0379318,40.0129545 30,41 M57.2197493,16.0562217 C56.9183592,16.102029 56.7727881,16.3164565 56.6282048,16.547845 C51.4524677,24.8383404 46.2751255,33.1279692 41.0979067,41.4177217 C40.6810721,42.0851459 40.256459,42.1643801 39.6225642,41.6944223 C36.9365988,39.7030445 34.2511272,37.7112952 31.5642975,35.7210316 C31.0591819,35.3467739 30.5299897,35.5146513 30.3657746,36.1121266 C30.0198118,37.371331 29.6866899,38.6341258 29.3483822,39.8955588 C29.1676222,39.8426947 29.3150453,39.6739507 29.2389878,39.5841932 C29.1300873,37.9788344 29.028595,36.3731041 28.9046312,34.7688596 C28.8849994,34.5153102 28.9599457,34.3865546 29.162313,34.2521041 C36.1420696,29.6176473 43.1177517,24.9773716 50.0939277,20.337715 C51.6090276,19.3299553 53.1242509,18.3224431 54.6378691,17.3128263 C55.0287749,17.0522201 55.1376754,16.7288456 54.9664226,16.3679587 C54.8103566,16.0387654 54.4804449,15.9289518 54.0086662,16.0445842 C46.5525624,17.8716749 39.0960883,19.6974038 31.640355,21.5254849 C27.563624,22.5251975 23.4877572,23.5285003 19.4118905,24.5309365 C18.6918137,24.7079754 18.2073176,25.1334877 18.0465597,25.8765558 C17.8823447,26.6363373 18.1592878,27.2157373 18.7703406,27.6766574 C20.1503643,28.7178441 21.5189053,29.7742586 22.8918912,30.8247305 C23.790876,31.5124585 24.686527,32.2047671 25.5899567,32.8864287 C26.0109893,33.2043559 26.5040048,33.0674293 26.6701954,32.6042807 C26.7903316,32.2686497 26.6972353,32.0514985 26.297563,31.7484278 C24.0757212,30.0635871 21.8536324,28.3791179 19.6309262,26.6953916 C19.4416468,26.5519034 19.2899022,26.3913304 19.3389198,26.1283719 C19.3874435,25.8675182 19.6148751,25.845605 19.8089699,25.7981882 C21.6036057,25.359429 23.3994762,24.926117 25.1947294,24.4902052 C33.0637166,22.5794234 40.932457,20.6681463 48.8015677,18.7576121 C49.4286716,18.6053339 50.0565163,18.456027 50.6839907,18.3053582 C50.608674,18.4141814 50.5186644,18.4805401 50.425815,18.5424418 C42.968847,23.5174818 35.5127432,28.4940075 28.0503425,33.4612479 C27.6951195,33.6975886 27.5718965,33.9714418 27.6032578,34.3877927 C27.766979,36.5678469 27.9111919,38.7493868 28.0642946,40.9301839 C28.1423277,42.0413195 28.2246821,43.1518361 28.3049376,44.2627241 C28.3290142,44.5966219 28.461621,44.8639134 28.7943725,44.9750889 C29.0988494,45.0767315 29.2678798,44.8464571 29.4399969,44.6608758 C30.8833607,43.1049146 32.3237612,41.5461058 33.7641617,39.9872971 C33.8407131,39.9044726 33.9398595,39.824867 33.9754188,39.7248339 C34.0706141,39.4575423 34.18433,39.5479188 34.3421246,39.664913 C35.8789551,40.8050186 37.4175143,41.942772 38.9597775,43.0752018 C39.9998884,43.838945 41.4165827,43.5904716 42.0673928,42.5435899 C47.2865913,34.1471188 52.5070246,25.7512668 57.7262231,17.3545481 C57.8073428,17.2240593 57.8947596,17.0935705 57.9500741,16.951568 C58.1441689,16.4544973 57.7453609,15.9762447 57.2197493,16.0562217" id="Fill-1"></path>
                </g>
            </g>
        </g>
    </g>
</svg>