<?xml version="1.0" encoding="UTF-8"?>
<svg width="200px" height="29px" viewBox="0 0 200 29" version="1.1" xmlns="http://www.w3.org/2000/svg" xmlns:xlink="http://www.w3.org/1999/xlink">
    <!-- Generator: Sketch 48.1 (47250) - http://www.bohemiancoding.com/sketch -->
    <title>Logo</title>
    <desc>Created with Sketch.</desc>
    <defs></defs>
    <g id="Desktop-HD" stroke="none" stroke-width="1" fill="none" fill-rule="evenodd" transform="translate(-251.000000, -38.000000)">
        <g id="Header" transform="translate(251.000000, 38.000000)" fill="#E40046">
            <g id="Logo">
                <path d="M88.1112971,8.56494286 L88.2435146,10.382 C89.3790795,8.97591429 90.9020921,8.27328571 92.809205,8.27328571 C94.4945607,8.27328571 95.7464435,8.76297143 96.5690377,9.74068571 C97.390795,10.7208857 97.8108787,12.1824857 97.8309623,14.1321143 L97.8309623,24.2937143 L93.5874477,24.2937143 L93.5874477,14.21 C93.5874477,13.3168 93.3924686,12.6680286 93.0008368,12.2653429 C92.6075314,11.8634857 91.9564854,11.6596571 91.0476987,11.6596571 C89.8518828,11.6596571 88.9573222,12.1642571 88.3598326,13.1742857 L88.3598326,24.2937143 L84.1179916,24.2937143 L84.1179916,8.56494286 L88.1112971,8.56494286 Z M99.5246862,16.3129143 C99.5246862,13.8595143 100.080335,11.9074 101.191632,10.4540857 C102.302092,8.99994286 103.822594,8.27328571 105.749791,8.27328571 C107.297071,8.27328571 108.575732,8.84582857 109.5841,9.98842857 L109.5841,1.96122857 L113.841841,1.96122857 L113.841841,24.2937143 L110.008368,24.2937143 L109.804184,22.6224857 C108.74728,23.9299714 107.387448,24.5853714 105.721339,24.5853714 C103.851046,24.5853714 102.350628,23.8570571 101.220084,22.3979429 C100.090377,20.9371714 99.5246862,18.9088286 99.5246862,16.3129143 Z M103.769038,16.6120286 C103.769038,18.0918571 104.026778,19.2261714 104.54477,20.0149714 C105.066109,20.8021143 105.81841,21.1981714 106.808368,21.1981714 C108.119665,21.1981714 109.044351,20.6471714 109.5841,19.5468286 L109.5841,13.3093429 C109.054393,12.209 108.138912,11.6596571 106.837657,11.6596571 C104.791632,11.6596571 103.769038,13.3093429 103.769038,16.6120286 Z M123.451046,24.5853714 C121.120502,24.5853714 119.222594,23.8769429 117.762343,22.4617429 C116.297071,21.0482 115.566527,19.1623714 115.566527,16.8067429 L115.566527,16.3999143 C115.566527,14.8198286 115.87364,13.4071143 116.491213,12.1617714 C117.108787,10.9172571 117.982427,9.95777143 119.111297,9.28331429 C120.243515,8.60885714 121.533054,8.27328571 122.979916,8.27328571 C125.153138,8.27328571 126.863598,8.95022857 128.112134,10.3082571 C129.360669,11.6646286 129.984937,13.5885714 129.984937,16.0817429 L129.984937,17.7952286 L119.868619,17.7952286 C120.005021,18.8234857 120.419247,19.6470857 121.10795,20.2676857 C121.798326,20.8891143 122.671967,21.1981714 123.729707,21.1981714 C125.36318,21.1981714 126.642678,20.6115429 127.560669,19.4391143 L129.646025,21.75 C129.009205,22.6415429 128.148954,23.3383714 127.062762,23.8355143 C125.975732,24.3351429 124.771548,24.5853714 123.451046,24.5853714 Z M122.967364,11.6596571 C122.123849,11.6596571 121.441841,11.9413714 120.918828,12.5072857 C120.394142,13.0715429 120.057741,13.8785714 119.912134,14.9316857 L125.814226,14.9316857 L125.814226,14.5961143 C125.794979,13.6623143 125.539749,12.9373143 125.051046,12.4285714 C124.560669,11.9156857 123.866109,11.6596571 122.967364,11.6596571 Z M140.641004,12.5039714 C140.064435,12.4260857 139.553975,12.3863143 139.115481,12.3863143 C137.508787,12.3863143 136.456904,12.9240571 135.958159,14.0003714 L135.958159,24.2937143 L131.712971,24.2937143 L131.712971,8.56494286 L135.721339,8.56494286 L135.841004,10.4383429 C136.690377,8.99414286 137.87113,8.27328571 139.378243,8.27328571 C139.847699,8.27328571 140.28954,8.33542857 140.699582,8.4622 L140.641004,12.5039714 Z M144.737238,24.2937143 L144.737238,11.6447429 L142.372385,11.6447429 L142.372385,8.56494286 L144.737238,8.56494286 L144.737238,7.22514286 C144.737238,5.46277143 145.250209,4.09314286 146.272803,3.11791429 C147.295397,2.146 148.72636,1.65714286 150.566527,1.65714286 C151.153138,1.65714286 151.874477,1.75408571 152.724686,1.94797143 L152.682008,5.17525714 C152.327197,5.08908571 151.897071,5.04765714 151.387448,5.04765714 C149.792469,5.04765714 148.995816,5.7942 148.995816,7.28894286 L148.995816,8.56494286 L152.152301,8.56494286 L152.152301,11.6447429 L148.995816,11.6447429 L148.995816,24.2937143 L144.737238,24.2937143 Z M152.408368,16.2830857 C152.408368,14.7245429 152.712134,13.3342 153.319665,12.1112286 C153.927197,10.8899143 154.799163,9.94368571 155.940586,9.27585714 C157.081172,8.6072 158.405021,8.27328571 159.91046,8.27328571 C162.056904,8.27328571 163.805858,8.92205714 165.162343,10.2229143 C166.517992,11.5196286 167.27364,13.2844857 167.430962,15.5116857 L167.461088,16.5888286 C167.461088,19.0008 166.779916,20.9371714 165.420084,22.3979429 C164.057741,23.8570571 162.230126,24.5853714 159.940586,24.5853714 C157.651883,24.5853714 155.821757,23.8587143 154.456904,22.4054 C153.09205,20.9496 152.408368,18.9726286 152.408368,16.4736571 L152.408368,16.2830857 Z M156.654393,16.5822 C156.654393,14.9026857 156.936402,13.6623143 157.504603,12.8610857 C158.071967,12.0606857 158.87364,11.6596571 159.91046,11.6596571 C160.959833,11.6596571 161.772385,12.064 162.348954,12.8685429 C162.928033,13.6747429 163.216736,14.8107143 163.216736,16.2748 C163.216736,17.9940857 162.928033,19.2435714 162.348954,20.0257429 C161.772385,20.8062571 160.969874,21.1981714 159.940586,21.1981714 C158.885356,21.1981714 158.071967,20.8021143 157.504603,20.0091714 C156.936402,19.2195429 156.654393,18.0761143 156.654393,16.5822 Z M168.837657,16.2830857 C168.837657,14.7245429 169.142259,13.3342 169.748954,12.1112286 C170.358996,10.8899143 171.230126,9.94368571 172.371548,9.27585714 C173.512134,8.6072 174.835146,8.27328571 176.342259,8.27328571 C178.487029,8.27328571 180.23431,8.92205714 181.590795,10.2229143 C182.94728,11.5196286 183.702092,13.2844857 183.858577,15.5116857 L183.88954,16.5888286 C183.88954,19.0008 183.208368,20.9371714 181.847699,22.3979429 C180.487866,23.8570571 178.662762,24.5853714 176.372385,24.5853714 C174.082008,24.5853714 172.253556,23.8587143 170.886192,22.4054 C169.523013,20.9496 168.837657,18.9726286 168.837657,16.4736571 L168.837657,16.2830857 Z M173.082008,16.5822 C173.082008,18.0761143 173.367364,19.2195429 173.933891,20.0091714 C174.502092,20.8021143 175.313808,21.1981714 176.372385,21.1981714 C177.399163,21.1981714 178.201674,20.8062571 178.779916,20.0257429 C179.356485,19.2435714 179.645188,17.9940857 179.645188,16.2748 C179.645188,14.8107143 179.356485,13.6747429 178.779916,12.8685429 C178.201674,12.064 177.389958,11.6596571 176.342259,11.6596571 C175.304603,11.6596571 174.502092,12.0606857 173.933891,12.8610857 C173.367364,13.6623143 173.082008,14.9026857 173.082008,16.5822 Z M185.266109,16.3129143 C185.266109,13.8595143 185.822594,11.9074 186.933891,10.4540857 C188.045188,8.99994286 189.564017,8.27328571 191.49205,8.27328571 C193.039331,8.27328571 194.316318,8.84582857 195.325523,9.98842857 L195.325523,1.96122857 L199.582427,1.96122857 L199.582427,24.2937143 L195.750628,24.2937143 L195.54477,22.6224857 C194.488703,23.9299714 193.128033,24.5853714 191.463598,24.5853714 C189.593305,24.5853714 188.094561,23.8570571 186.961506,22.3979429 C185.831799,20.9371714 185.266109,18.9088286 185.266109,16.3129143 Z M189.509623,16.6120286 C189.509623,18.0918571 189.769874,19.2261714 190.288703,20.0149714 C190.807531,20.8021143 191.560669,21.1981714 192.548954,21.1981714 C193.860251,21.1981714 194.786611,20.6471714 195.325523,19.5468286 L195.325523,13.3093429 C194.796653,12.209 193.882008,11.6596571 192.577406,11.6596571 C190.532218,11.6596571 189.509623,13.3093429 189.509623,16.6120286 Z M61.0627615,18.5798857 L63.1456067,8.56494286 L67.2443515,8.56494286 L63.1899582,24.2937143 L59.6359833,24.2937143 L56.6267782,14.3947714 L53.6167364,24.2937143 L50.0778243,24.2937143 L46.0251046,8.56494286 L50.1221757,8.56494286 L52.1924686,18.5658 L55.0987448,8.56494286 L58.1682008,8.56494286 L61.0627615,18.5798857 Z M67.376569,16.2830857 C67.376569,14.7245429 67.6794979,13.3342 68.2878661,12.1112286 C68.8937238,10.8899143 69.7682008,9.94368571 70.9079498,9.27585714 C72.0485356,8.6072 73.3715481,8.27328571 74.8803347,8.27328571 C77.023431,8.27328571 78.7723849,8.92205714 80.1297071,10.2229143 C81.483682,11.5196286 82.241841,13.2844857 82.3983264,15.5116857 L82.4259414,16.5888286 C82.4259414,19.0008 81.7481172,20.9371714 80.3849372,22.3979429 C79.0259414,23.8570571 77.1991632,24.5853714 74.9096234,24.5853714 C72.61841,24.5853714 70.7899582,23.8587143 69.4242678,22.4054 C68.0594142,20.9496 67.376569,18.9726286 67.376569,16.4736571 L67.376569,16.2830857 Z M71.6209205,16.5822 C71.6209205,18.0761143 71.9029289,19.2195429 72.4728033,20.0091714 C73.0393305,20.8021143 73.8502092,21.1981714 74.9096234,21.1981714 C75.9389121,21.1981714 76.7389121,20.8062571 77.3171548,20.0257429 C77.8945607,19.2435714 78.1841004,17.9940857 78.1841004,16.2748 C78.1841004,14.8107143 77.8945607,13.6747429 77.3171548,12.8685429 C76.7389121,12.064 75.9271967,11.6596571 74.8803347,11.6596571 C73.8435146,11.6596571 73.0393305,12.0606857 72.4728033,12.8610857 C71.9029289,13.6623143 71.6209205,14.9026857 71.6209205,16.5822 Z" id="Combined-Shape"></path>
                <path d="M35.375437,3.1565163 C39.5331528,7.36386071 39.5331528,14.1852556 35.375437,18.3926 L24.8971699,29 L22.7489392,26.8227446 C20.7387902,24.7886236 19.2477747,23.2786567 19.2477747,23.2786567 C19.2477747,23.2786567 17.7547677,24.7886236 15.7459464,26.8227446 L13.596388,29 L3.11878477,18.3926 C-1.03959492,14.1852556 -1.03959492,7.36386071 3.11878477,3.1565163 C7.27450905,-1.0521721 14.0146159,-1.0521721 18.1729956,3.1565163 C18.5713078,3.56172772 18.9238141,3.99919477 19.2471109,4.44942968 C19.5717353,3.99919477 19.922914,3.56172772 20.3232177,3.1565163 C24.4802697,-1.0521721 31.218385,-1.0521721 35.375437,3.1565163 Z M33.2272063,16.2180326 C36.1933048,13.2115386 36.1933048,8.34093766 33.2272063,5.33242769 C31.6512176,3.73913371 29.5521121,2.99120617 27.4901825,3.08662909 L27.4901825,13.618766 C27.4901825,17.3066603 25.11425,20.4408328 21.8321573,21.5402124 L24.8971699,24.6481772 C28.5901881,20.9105555 32.8030038,16.6440757 33.2272063,16.2180326 Z M13.596388,24.6481772 L16.6627283,21.5415564 C13.3819633,20.4415048 11.0047031,17.3073322 11.0047031,13.618766 L11.0047031,3.08662909 C8.94078189,2.99120617 6.84499569,3.73913371 5.26834311,5.33242769 C2.30025314,8.34093766 2.30025314,13.2115386 5.26834311,16.2180326 C5.68989022,16.6440757 9.90536134,20.9105555 13.596388,24.6481772 Z M17.7255581,7.05877616 C17.0557297,6.38006384 16.3473978,5.66304795 16.0214457,5.33242769 C15.4279604,4.73099449 14.7601236,4.25320789 14.0484724,3.89234798 L14.0484724,13.618766 C14.0484724,15.9855232 15.5998985,17.9914205 17.7255581,18.6506451 L17.7255581,7.05877616 Z M24.4464132,3.89234798 C23.734762,4.25320789 23.0662613,4.73099449 22.4714484,5.33242769 C22.1461601,5.66304795 21.4398197,6.38006384 20.7686636,7.05877616 L20.7686636,18.6506451 C22.8949871,17.9900765 24.4464132,15.9848512 24.4464132,13.618766 L24.4464132,3.89234798 Z" id="Combined-Shape"></path>
            </g>
        </g>
    </g>
</svg>