<?xml version="1.0" encoding="UTF-8"?>
<svg width="180px" height="29px" viewBox="0 0 180 29" version="1.1" xmlns="http://www.w3.org/2000/svg" xmlns:xlink="http://www.w3.org/1999/xlink">
    <!-- Generator: Sketch 64 (93537) - https://sketch.com -->
    <title>wonderlogo</title>
    <desc>Created with Sketch.</desc>
    <g id="wonderlogo" stroke="none" stroke-width="1" fill="none" fill-rule="evenodd">
        <text id="wonderfood" font-family="Helvetica-Bold, Helvetica" font-size="24" font-weight="bold" letter-spacing="-0.564705829" fill="#243444">
            <tspan x="44.7759645" y="23">Wonderfood</tspan>
        </text>
        <g id="App-Icon">
            <path d="M26.7222222,0 C32.3984822,0 37,4.63705081 37,10.3571429 C37,12.9064159 36.0860387,15.2405735 34.5703054,17.0450156 C34.2790922,17.5070212 33.9311435,17.9367945 33.5294007,18.3221841 L23.8300862,28.3302343 C23.417114,28.7588882 22.8549587,29 22.2685185,29 C21.6820783,29 21.119923,28.7588882 20.7069509,28.3302343 L18.5,26.0530347 L16.2930491,28.3302343 C15.880077,28.7588882 15.3179217,29 14.7314815,29 C14.1450413,29 13.582886,28.7588882 13.1699138,28.3302343 L3.47059926,18.3221841 C3.06885655,17.9367945 2.72090784,17.5070212 2.43011328,17.0446574 C0.913961255,15.2405735 0,12.9064159 0,10.3571429 C0,4.63705081 4.60151785,0 10.2777778,0 C13.6402478,0 16.6255831,1.62717456 18.5006784,4.14275745 C20.3744169,1.62717456 23.3597522,0 26.7222222,0 Z" id="Combined-Shape" fill="#E40046"></path>
            <path d="M20.3913043,17.2415325 C20.3982236,17.2516961 20.4016832,17.2629074 20.4016832,17.2751665 C20.4016832,17.4604619 20.3975081,18.0025523 20.9659567,18.3701345 C21.2968054,18.5840748 21.673972,18.6112387 22.0974565,18.4516261 C23.3909951,17.6798967 24.2173913,16.4428356 24.2173913,15.0844156 L24.2173913,8.36363636 C24.2173913,7.6105208 24.8402995,7 25.6086957,7 C26.3770918,7 27,7.6105208 27,8.36363636 L27,15.0844156 C27,18.9544496 23.3747651,22 19,22 C14.6252349,22 11,18.9544496 11,15.0844156 L11,8.36363636 C11,7.6105208 11.6229082,7 12.3913043,7 C13.1597005,7 13.7826087,7.6105208 13.7826087,8.36363636 L13.7826087,15.0844156 C13.7826087,16.4371306 14.6020781,17.6695039 15.8862706,18.4418783 C16.3214865,18.6122456 16.7083648,18.588331 17.0469054,18.3701345 C17.5013096,18.0772616 17.5910058,17.6736076 17.6086957,17.427903 L17.6086957,9.72727273 C17.6086957,8.97415716 18.2316038,8.36363636 19,8.36363636 C19.7683962,8.36363636 20.3913043,8.97415716 20.3913043,9.72727273 L20.3913043,17.2415325 L20.3913043,17.2415325 Z" id="Path" fill="#FFFFFF" fill-rule="nonzero"></path>
        </g>
    </g>
</svg>